<svg width="22" height="22" viewBox="0 0 22 22" fill="none" xmlns="http://www.w3.org/2000/svg">
<path d="M7.60153 0.417289C7.55607 0.294808 7.47421 0.189174 7.36695 0.114579C7.25969 0.0399834 7.13218 0 7.00153 0C6.87088 0 6.74337 0.0399834 6.63611 0.114579C6.52885 0.189174 6.44699 0.294808 6.40153 0.417289L6.23453 0.867289C6.03425 1.40892 5.71906 1.90076 5.31064 2.30901C4.90222 2.71726 4.41024 3.03224 3.86853 3.23229L3.41953 3.39829C3.29638 3.44337 3.19005 3.52519 3.11493 3.63268C3.03981 3.74018 2.99953 3.86815 2.99953 3.99929C2.99953 4.13043 3.03981 4.2584 3.11493 4.3659C3.19005 4.47339 3.29638 4.55521 3.41953 4.60029L3.86953 4.76629C4.41116 4.96657 4.903 5.28176 5.31125 5.69018C5.7195 6.0986 6.03448 6.59058 6.23453 7.13229L6.40053 7.58129C6.44561 7.70444 6.52743 7.81077 6.63492 7.88589C6.74242 7.96101 6.87039 8.00129 7.00153 8.00129C7.13267 8.00129 7.26064 7.96101 7.36814 7.88589C7.47563 7.81077 7.55745 7.70444 7.60253 7.58129L7.76853 7.13129C7.96881 6.58966 8.284 6.09782 8.69242 5.68957C9.10084 5.28132 9.59282 4.96634 10.1345 4.76629L10.5835 4.60029C10.7067 4.55521 10.813 4.47339 10.8881 4.3659C10.9632 4.2584 11.0035 4.13043 11.0035 3.99929C11.0035 3.86815 10.9632 3.74018 10.8881 3.63268C10.813 3.52519 10.7067 3.44337 10.5835 3.39829L10.1335 3.23229C9.5919 3.03201 9.10006 2.71682 8.69181 2.3084C8.28356 1.89998 7.96858 1.408 7.76853 0.866289L7.60153 0.417289ZM2.87753 6.26029C2.8495 6.18307 2.79838 6.11635 2.73111 6.0692C2.66384 6.02205 2.58368 5.99676 2.50153 5.99676C2.41938 5.99676 2.33922 6.02205 2.27195 6.0692C2.20468 6.11635 2.15356 6.18307 2.12553 6.26029L2.02253 6.54129C1.89743 6.87999 1.70045 7.18758 1.44514 7.4429C1.18982 7.69821 0.882236 7.89519 0.54353 8.02029L0.26353 8.12329C0.18631 8.15132 0.119592 8.20244 0.0724425 8.26971C0.0252933 8.33698 0 8.41714 0 8.49929C0 8.58144 0.0252933 8.6616 0.0724425 8.72887C0.119592 8.79614 0.18631 8.84726 0.26353 8.87529L0.54353 8.97829C0.882236 9.10339 1.18982 9.30037 1.44514 9.55568C1.70045 9.811 1.89743 10.1186 2.02253 10.4573L2.12553 10.7373C2.15356 10.8145 2.20468 10.8812 2.27195 10.9284C2.33922 10.9755 2.41938 11.0008 2.50153 11.0008C2.58368 11.0008 2.66384 10.9755 2.73111 10.9284C2.79838 10.8812 2.8495 10.8145 2.87753 10.7373L2.98053 10.4573C3.10563 10.1186 3.30261 9.811 3.55792 9.55568C3.81324 9.30037 4.12082 9.10339 4.45953 8.97829L4.73953 8.87529C4.81675 8.84726 4.88347 8.79614 4.93062 8.72887C4.97777 8.6616 5.00306 8.58144 5.00306 8.49929C5.00306 8.41714 4.97777 8.33698 4.93062 8.26971C4.88347 8.20244 4.81675 8.15132 4.73953 8.12329L4.45953 8.02029C4.12082 7.89519 3.81324 7.69821 3.55792 7.4429C3.30261 7.18758 3.10563 6.87999 2.98053 6.54129L2.87753 6.26029Z" fill="#6A3DF6"/>
<path d="M9.78246 10.8312C9.07266 10.6418 8.32883 10.6181 7.60839 10.7618C6.88795 10.9055 6.21017 11.2129 5.62735 11.6601C5.04454 12.1073 4.57228 12.6825 4.24703 13.3412C3.92177 13.9999 3.75222 14.7245 3.75146 15.4592V19.2492C3.75146 19.5144 3.85682 19.7687 4.04436 19.9563C4.23189 20.1438 4.48625 20.2492 4.75146 20.2492H8.54146C9.27632 20.2494 10.0014 20.0805 10.6605 19.7556C11.3196 19.4307 11.8952 18.9585 12.3426 18.3755C12.79 17.7926 13.0973 17.1145 13.2407 16.3938C13.3841 15.673 13.3597 14.929 13.1695 14.2192M9.78246 10.8312C10.5942 11.0497 11.3342 11.4776 11.9286 12.072C12.523 12.6664 12.9509 13.4065 13.1695 14.2182L16.3595 11.0282M9.78246 10.8312L12.9725 7.64118M12.9725 7.64118L16.1625 4.45118C16.6124 4.0057 17.2204 3.7565 17.8535 3.75806C18.4866 3.75963 19.0934 4.01184 19.5411 4.45954C19.9888 4.90723 20.241 5.51399 20.2426 6.14713C20.2441 6.78027 19.9949 7.38827 19.5495 7.83817L16.3595 11.0282M12.9725 7.64118L16.3595 11.0282" stroke="#6A3DF6" stroke-width="2" stroke-linejoin="round"/>
</svg>
